; Drill file
; Format: 3.3 (000.000)
M48
METRIC
T01C1
T02C1.5
T03C3
%
G05
G90
T01
X012700Y020580
X015240Y020580
X017780Y020580
X020320Y020580
X019050Y023120
X016510Y023120
X013970Y023120
X013970Y028200
X016510Y028200
X016510Y034550
X013970Y034550
X013970Y040900
X013970Y044710
X011430Y044710
X016510Y044710
X019050Y044710
X021590Y044710
X024130Y044710
X019050Y040900
X021590Y023120
X036740Y021270
X039280Y021270
X041820Y021270
X044360Y021270
X048170Y020000
X050710Y025080
X048170Y028890
X050710Y031430
X054580Y032130
X059020Y027580
X063410Y033970
X063410Y036510
X063410Y039050
X063410Y041590
X046500Y036770
X043960Y036770
X041420Y036770
X038880Y036770
X040150Y034230
X037610Y034230
X042690Y034230
X045230Y034230
X049570Y012340
X049570Y009800
X054850Y009840
X054850Y012380
X060870Y012380
X060870Y009840
X044360Y011110
X041820Y011110
X039280Y011110
X036740Y011110
T02
X009370Y011210
X024920Y011210
X034280Y046130
X049840Y046130
T03
X011430Y014230
X022860Y014230
X024130Y032010
X036340Y043120
X047770Y043120
X054060Y042540
X054060Y019680
X007620Y032010
M30
