%FSLAX34Y34*%
%MOMM*%
%LNSILK_TOP*%
G71*
G01*
%ADD10C, 4.30*%
%ADD11C, 1.80*%
%ADD12C, 6.80*%
%ADD13C, 7.30*%
%ADD14C, 1.60*%
%ADD15C, 4.50*%
%ADD16C, 1.12*%
%ADD17C, 1.01*%
%ADD18C, 1.61*%
%ADD19C, 1.13*%
%ADD20C, 1.04*%
%ADD21C, 1.03*%
%ADD22C, 1.05*%
%ADD23C, 1.07*%
%ADD24C, 3.50*%
%ADD25C, 1.00*%
%ADD26C, 6.00*%
%ADD27C, 6.50*%
%ADD28C, 0.80*%
%ADD29C, 3.70*%
%ADD30C, 0.32*%
%LPD*%
G36*
X0Y520000D02*
X700000Y520000D01*
X700000Y-80000D01*
X0Y-80000D01*
X0Y520000D01*
G37*
%LPC*%
X228600Y142300D02*
G54D10*
D03*
X114300Y142300D02*
G54D10*
D03*
G36*
X230238Y120022D02*
X241352Y131138D01*
X257122Y131138D01*
X268238Y120022D01*
X268238Y104252D01*
X257122Y93138D01*
X241352Y93138D01*
X230238Y104252D01*
X230238Y120022D01*
G37*
G36*
X74662Y120022D02*
X85778Y131138D01*
X101548Y131138D01*
X112662Y120022D01*
X112662Y104252D01*
X101548Y93138D01*
X85778Y93138D01*
X74662Y104252D01*
X74662Y120022D01*
G37*
G36*
X154600Y235558D02*
X160742Y241700D01*
X169458Y241700D01*
X175600Y235558D01*
X175600Y226842D01*
X169458Y220700D01*
X160742Y220700D01*
X154600Y226842D01*
X154600Y235558D01*
G37*
G36*
X163800Y211610D02*
X171990Y219800D01*
X183610Y219800D01*
X191800Y211610D01*
X191800Y199990D01*
X183610Y191800D01*
X171990Y191800D01*
X163800Y199990D01*
X163800Y211610D01*
G37*
G36*
X189200Y211610D02*
X197390Y219800D01*
X209010Y219800D01*
X217200Y211610D01*
X217200Y199990D01*
X209010Y191800D01*
X197390Y191800D01*
X189200Y199990D01*
X189200Y211610D01*
G37*
G36*
X138400Y211610D02*
X146590Y219800D01*
X158210Y219800D01*
X166400Y211610D01*
X166400Y199990D01*
X158210Y191800D01*
X146590Y191800D01*
X138400Y199990D01*
X138400Y211610D01*
G37*
G36*
X113000Y211610D02*
X121190Y219800D01*
X132810Y219800D01*
X141000Y211610D01*
X141000Y199990D01*
X132810Y191800D01*
X121190Y191800D01*
X113000Y199990D01*
X113000Y211610D01*
G37*
G36*
X151100Y237010D02*
X159290Y245200D01*
X170910Y245200D01*
X179100Y237010D01*
X179100Y225390D01*
X170910Y217200D01*
X159290Y217200D01*
X151100Y225390D01*
X151100Y237010D01*
G37*
G36*
X125700Y237010D02*
X133890Y245200D01*
X145510Y245200D01*
X153700Y237010D01*
X153700Y225390D01*
X145510Y217200D01*
X133890Y217200D01*
X125700Y225390D01*
X125700Y237010D01*
G37*
G36*
X176500Y237010D02*
X184690Y245200D01*
X196310Y245200D01*
X204500Y237010D01*
X204500Y225390D01*
X196310Y217200D01*
X184690Y217200D01*
X176500Y225390D01*
X176500Y237010D01*
G37*
G36*
X201900Y237010D02*
X210090Y245200D01*
X221710Y245200D01*
X229900Y237010D01*
X229900Y225390D01*
X221710Y217200D01*
X210090Y217200D01*
X201900Y225390D01*
X201900Y237010D01*
G37*
G54D11*
X165100Y231200D02*
X165100Y282000D01*
G36*
X100300Y452910D02*
X108490Y461100D01*
X120110Y461100D01*
X128300Y452910D01*
X128300Y441290D01*
X120110Y433100D01*
X108490Y433100D01*
X100300Y441290D01*
X100300Y452910D01*
G37*
G36*
X125700Y452910D02*
X133890Y461100D01*
X145510Y461100D01*
X153700Y452910D01*
X153700Y441290D01*
X145510Y433100D01*
X133890Y433100D01*
X125700Y441290D01*
X125700Y452910D01*
G37*
G36*
X151100Y452910D02*
X159290Y461100D01*
X170910Y461100D01*
X179100Y452910D01*
X179100Y441290D01*
X170910Y433100D01*
X159290Y433100D01*
X151100Y441290D01*
X151100Y452910D01*
G37*
G36*
X176500Y452910D02*
X184690Y461100D01*
X196310Y461100D01*
X204500Y452910D01*
X204500Y441290D01*
X196310Y433100D01*
X184690Y433100D01*
X176500Y441290D01*
X176500Y452910D01*
G37*
G36*
X201900Y452910D02*
X210090Y461100D01*
X221710Y461100D01*
X229900Y452910D01*
X229900Y441290D01*
X221710Y433100D01*
X210090Y433100D01*
X201900Y441290D01*
X201900Y452910D01*
G37*
G36*
X227300Y452910D02*
X235490Y461100D01*
X247110Y461100D01*
X255300Y452910D01*
X255300Y441290D01*
X247110Y433100D01*
X235490Y433100D01*
X227300Y441290D01*
X227300Y452910D01*
G37*
X76200Y320100D02*
G54D12*
D03*
X241300Y320100D02*
G54D13*
D03*
G36*
X179100Y339689D02*
X170910Y331499D01*
X159290Y331499D01*
X151100Y339689D01*
X151100Y351309D01*
X159290Y359499D01*
X170910Y359499D01*
X179100Y351309D01*
X179100Y339689D01*
G37*
G36*
X153700Y339690D02*
X145510Y331500D01*
X133890Y331500D01*
X125700Y339690D01*
X125700Y351310D01*
X133890Y359500D01*
X145510Y359500D01*
X153700Y351310D01*
X153700Y339690D01*
G37*
G36*
X179100Y276189D02*
X170910Y267999D01*
X159290Y267999D01*
X151100Y276189D01*
X151100Y287809D01*
X159290Y295999D01*
X170910Y295999D01*
X179100Y287809D01*
X179100Y276189D01*
G37*
G36*
X153700Y276190D02*
X145510Y268000D01*
X133890Y268000D01*
X125700Y276190D01*
X125700Y287810D01*
X133890Y296000D01*
X145510Y296000D01*
X153700Y287810D01*
X153700Y276190D01*
G37*
G54D11*
X165100Y281999D02*
X165100Y345500D01*
X114300Y396300D01*
X114300Y447100D01*
G54D14*
X139700Y231200D02*
X114300Y256600D01*
X114300Y358200D01*
X76200Y396300D01*
X76200Y459800D01*
X88900Y472500D01*
X177800Y472500D01*
X190500Y459800D01*
X190500Y447100D01*
G54D11*
X190500Y231200D02*
X190500Y383600D01*
X165100Y409000D01*
X165100Y447100D01*
G36*
X125700Y414810D02*
X133890Y423000D01*
X145510Y423000D01*
X153700Y414810D01*
X153700Y403190D01*
X145510Y395000D01*
X133890Y395000D01*
X125700Y403190D01*
X125700Y414810D01*
G37*
G36*
X176500Y414810D02*
X184690Y423000D01*
X196310Y423000D01*
X204500Y414810D01*
X204500Y403190D01*
X196310Y395000D01*
X184690Y395000D01*
X176500Y403190D01*
X176500Y414810D01*
G37*
X363420Y431179D02*
G54D15*
D03*
X477720Y431179D02*
G54D15*
D03*
G36*
X361783Y453456D02*
X350668Y442341D01*
X334898Y442341D01*
X323783Y453456D01*
X323783Y469226D01*
X334898Y480341D01*
X350668Y480341D01*
X361783Y469226D01*
X361783Y453456D01*
G37*
G36*
X517358Y453456D02*
X506243Y442341D01*
X490473Y442341D01*
X479358Y453456D01*
X479358Y469226D01*
X490473Y480341D01*
X506243Y480341D01*
X517358Y469226D01*
X517358Y453456D01*
G37*
G36*
X437420Y337921D02*
X431278Y331779D01*
X422562Y331779D01*
X416420Y337921D01*
X416420Y346637D01*
X422562Y352779D01*
X431278Y352779D01*
X437420Y346637D01*
X437420Y337921D01*
G37*
G36*
X428220Y361869D02*
X420030Y353679D01*
X408410Y353679D01*
X400220Y361869D01*
X400220Y373489D01*
X408410Y381679D01*
X420030Y381679D01*
X428220Y373489D01*
X428220Y361869D01*
G37*
G36*
X402820Y361869D02*
X394630Y353679D01*
X383010Y353679D01*
X374820Y361869D01*
X374820Y373489D01*
X383010Y381679D01*
X394630Y381679D01*
X402820Y373489D01*
X402820Y361869D01*
G37*
G36*
X453620Y361869D02*
X445430Y353679D01*
X433810Y353679D01*
X425620Y361869D01*
X425620Y373489D01*
X433810Y381679D01*
X445430Y381679D01*
X453620Y373489D01*
X453620Y361869D01*
G37*
G36*
X479020Y361869D02*
X470830Y353679D01*
X459210Y353679D01*
X451020Y361869D01*
X451020Y373489D01*
X459210Y381679D01*
X470830Y381679D01*
X479020Y373489D01*
X479020Y361869D01*
G37*
G36*
X440920Y336469D02*
X432730Y328279D01*
X421110Y328279D01*
X412920Y336469D01*
X412920Y348089D01*
X421110Y356279D01*
X432730Y356279D01*
X440920Y348089D01*
X440920Y336469D01*
G37*
G36*
X466320Y336469D02*
X458130Y328279D01*
X446510Y328279D01*
X438320Y336469D01*
X438320Y348089D01*
X446510Y356279D01*
X458130Y356279D01*
X466320Y348089D01*
X466320Y336469D01*
G37*
G36*
X415520Y336469D02*
X407330Y328279D01*
X395710Y328279D01*
X387520Y336469D01*
X387520Y348089D01*
X395710Y356279D01*
X407330Y356279D01*
X415520Y348089D01*
X415520Y336469D01*
G37*
G36*
X390120Y336469D02*
X381930Y328279D01*
X370310Y328279D01*
X362120Y336469D01*
X362120Y348089D01*
X370310Y356279D01*
X381930Y356279D01*
X390120Y348089D01*
X390120Y336469D01*
G37*
X540599Y425433D02*
G54D12*
D03*
X540599Y196833D02*
G54D13*
D03*
G36*
X542659Y84437D02*
X534469Y92627D01*
X534469Y104247D01*
X542659Y112437D01*
X554279Y112437D01*
X562469Y104247D01*
X562469Y92627D01*
X554279Y84437D01*
X542659Y84437D01*
G37*
G36*
X542659Y109838D02*
X534469Y118028D01*
X534469Y129648D01*
X542659Y137838D01*
X554279Y137838D01*
X562469Y129648D01*
X562469Y118028D01*
X554279Y109838D01*
X542659Y109838D01*
G37*
G36*
X639879Y429937D02*
X648069Y421747D01*
X648069Y410127D01*
X639879Y401937D01*
X628259Y401937D01*
X620069Y410127D01*
X620069Y421747D01*
X628259Y429937D01*
X639879Y429937D01*
G37*
G36*
X639879Y404537D02*
X648069Y396347D01*
X648069Y384727D01*
X639879Y376537D01*
X628259Y376537D01*
X620069Y384727D01*
X620069Y396347D01*
X628259Y404537D01*
X639879Y404537D01*
G37*
G36*
X639879Y379137D02*
X648069Y370947D01*
X648069Y359327D01*
X639879Y351137D01*
X628259Y351137D01*
X620069Y359327D01*
X620069Y370947D01*
X628259Y379137D01*
X639879Y379137D01*
G37*
G36*
X639879Y353737D02*
X648069Y345547D01*
X648069Y333928D01*
X639879Y325738D01*
X628259Y325738D01*
X620069Y333928D01*
X620069Y345547D01*
X628259Y353737D01*
X639879Y353737D01*
G37*
G36*
X449379Y226737D02*
X457569Y218547D01*
X457569Y206927D01*
X449379Y198737D01*
X437759Y198737D01*
X429569Y206927D01*
X429569Y218547D01*
X437759Y226737D01*
X449379Y226737D01*
G37*
G36*
X423979Y226737D02*
X432169Y218547D01*
X432169Y206927D01*
X423979Y198737D01*
X412359Y198737D01*
X404169Y206927D01*
X404169Y218547D01*
X412359Y226737D01*
X423979Y226737D01*
G37*
G36*
X398579Y226737D02*
X406769Y218547D01*
X406769Y206927D01*
X398579Y198737D01*
X386959Y198737D01*
X378769Y206927D01*
X378769Y218547D01*
X386959Y226737D01*
X398579Y226737D01*
G37*
G36*
X373179Y226737D02*
X381369Y218547D01*
X381369Y206927D01*
X373179Y198737D01*
X361559Y198737D01*
X353369Y206927D01*
X353369Y218547D01*
X361559Y226737D01*
X373179Y226737D01*
G37*
G36*
X622669Y92627D02*
X614479Y84437D01*
X602859Y84437D01*
X594669Y92627D01*
X594669Y104247D01*
X602859Y112437D01*
X614479Y112437D01*
X622669Y104247D01*
X622669Y92627D01*
G37*
G36*
X622669Y118027D02*
X614479Y109837D01*
X602859Y109837D01*
X594669Y118027D01*
X594669Y129647D01*
X602859Y137837D01*
X614479Y137837D01*
X622669Y129647D01*
X622669Y118027D01*
G37*
G36*
X449379Y125138D02*
X457569Y116948D01*
X457569Y105328D01*
X449379Y97138D01*
X437759Y97138D01*
X429569Y105328D01*
X429569Y116948D01*
X437759Y125138D01*
X449379Y125138D01*
G37*
G36*
X423979Y125138D02*
X432169Y116948D01*
X432169Y105328D01*
X423979Y97138D01*
X412359Y97138D01*
X404169Y105328D01*
X404169Y116948D01*
X412359Y125138D01*
X423979Y125138D01*
G37*
G36*
X398579Y125138D02*
X406769Y116948D01*
X406769Y105328D01*
X398579Y97138D01*
X386959Y97138D01*
X378769Y105328D01*
X378769Y116948D01*
X386959Y125138D01*
X398579Y125138D01*
G37*
G36*
X373179Y125137D02*
X381369Y116947D01*
X381369Y105327D01*
X373179Y97137D01*
X361559Y97137D01*
X353369Y105327D01*
X353369Y116947D01*
X361559Y125137D01*
X373179Y125137D01*
G37*
G36*
X489886Y84015D02*
X481696Y92205D01*
X481696Y103825D01*
X489886Y112015D01*
X501506Y112015D01*
X509696Y103825D01*
X509696Y92205D01*
X501506Y84015D01*
X489886Y84015D01*
G37*
G36*
X489886Y109416D02*
X481696Y117606D01*
X481696Y129226D01*
X489886Y137416D01*
X501506Y137416D01*
X509696Y129226D01*
X509696Y117606D01*
X501506Y109416D01*
X489886Y109416D01*
G37*
G54D11*
X495696Y98015D02*
X456691Y98015D01*
X443569Y111138D01*
G54D11*
X548469Y98437D02*
X496118Y98437D01*
X495696Y98015D01*
G54D11*
X608669Y98437D02*
X548469Y98437D01*
G54D11*
X443569Y212737D02*
X443569Y276238D01*
X430869Y288937D01*
G54D11*
X426920Y342279D02*
X426920Y292886D01*
X430869Y288937D01*
G54D11*
X634069Y415937D02*
X608669Y415938D01*
X443569Y250838D01*
G54D11*
X418169Y212737D02*
X418169Y250838D01*
X405469Y263537D01*
G54D11*
X401520Y342279D02*
X401520Y267486D01*
X405469Y263537D01*
G54D14*
X418169Y212737D02*
X437219Y193687D01*
X449919Y193687D01*
X595969Y339737D01*
X634069Y339737D01*
G54D14*
X392769Y212737D02*
X430869Y174637D01*
X456269Y174638D01*
X602319Y320688D01*
X640419Y320688D01*
X653119Y333388D01*
X653119Y346087D01*
X634069Y365137D01*
G54D11*
X634069Y365137D02*
X653119Y384187D01*
X653119Y422287D01*
X640419Y434987D01*
X627719Y434988D01*
X621369Y428638D01*
X602319Y428637D01*
X513419Y339737D01*
X449919Y339737D01*
X452320Y342278D01*
G36*
X551639Y335277D02*
X559829Y327087D01*
X559829Y315467D01*
X551639Y307277D01*
X540019Y307277D01*
X531829Y315467D01*
X531829Y327087D01*
X540019Y335277D01*
X551639Y335277D01*
G37*
G36*
X596029Y289818D02*
X604219Y281628D01*
X604219Y270008D01*
X596029Y261818D01*
X584409Y261818D01*
X576219Y270008D01*
X576219Y281628D01*
X584409Y289818D01*
X596029Y289818D01*
G37*
G36*
X512464Y327338D02*
X520069Y319732D01*
X520069Y308942D01*
X512464Y301338D01*
X501674Y301338D01*
X494069Y308942D01*
X494069Y319732D01*
X501674Y327338D01*
X512464Y327338D01*
G37*
G36*
X487479Y302938D02*
X495669Y294748D01*
X495669Y283128D01*
X487479Y274938D01*
X475859Y274938D01*
X467669Y283128D01*
X467669Y294748D01*
X475859Y302938D01*
X487479Y302938D01*
G37*
G36*
X487479Y214037D02*
X495669Y205847D01*
X495669Y194227D01*
X487479Y186037D01*
X475859Y186037D01*
X467669Y194227D01*
X467669Y205847D01*
X475859Y214037D01*
X487479Y214037D01*
G37*
G36*
X512879Y264837D02*
X521069Y256647D01*
X521069Y245027D01*
X512879Y236837D01*
X501259Y236837D01*
X493069Y245027D01*
X493069Y256647D01*
X501259Y264837D01*
X512879Y264837D01*
G37*
G54D16*
X247650Y168433D02*
X246317Y166211D01*
X243650Y165100D01*
X240983Y165100D01*
X238317Y166211D01*
X236983Y168433D01*
X236983Y170656D01*
X238317Y172878D01*
X240983Y173989D01*
X243650Y173989D01*
X246317Y175100D01*
X247650Y177322D01*
X247650Y179544D01*
X246317Y181767D01*
X243650Y182878D01*
X240983Y182878D01*
X238317Y181767D01*
X236983Y179544D01*
G54D16*
X221428Y165100D02*
X230761Y165100D01*
X230761Y182878D01*
X221428Y182878D01*
G54D16*
X230761Y173989D02*
X221428Y173989D01*
G54D16*
X215206Y165100D02*
X215206Y182878D01*
X204539Y165100D01*
X204539Y182878D01*
G54D16*
X198317Y168433D02*
X196984Y166211D01*
X194317Y165100D01*
X191650Y165100D01*
X188984Y166211D01*
X187650Y168433D01*
X187650Y170656D01*
X188984Y172878D01*
X191650Y173989D01*
X194317Y173989D01*
X196984Y175100D01*
X198317Y177322D01*
X198317Y179544D01*
X196984Y181767D01*
X194317Y182878D01*
X191650Y182878D01*
X188984Y181767D01*
X187650Y179544D01*
G54D16*
X170761Y179544D02*
X170761Y168433D01*
X172095Y166211D01*
X174761Y165100D01*
X177428Y165100D01*
X180095Y166211D01*
X181428Y168433D01*
X181428Y179544D01*
X180095Y181767D01*
X177428Y182878D01*
X174761Y182878D01*
X172095Y181767D01*
X170761Y179544D01*
G54D16*
X159206Y173989D02*
X155206Y171767D01*
X153872Y169544D01*
X153872Y165100D01*
G54D16*
X164539Y165100D02*
X164539Y182878D01*
X157872Y182878D01*
X155206Y181767D01*
X153872Y179544D01*
X153872Y177322D01*
X155206Y175100D01*
X157872Y173989D01*
X164539Y173989D01*
G54D16*
X141161Y182878D02*
X134494Y165100D01*
X127828Y182878D01*
G54D16*
X121606Y176211D02*
X114939Y182878D01*
X114939Y165100D01*
G54D16*
X108717Y165100D02*
X108717Y165100D01*
G54D16*
X102495Y176211D02*
X95828Y182878D01*
X95828Y165100D01*
G54D16*
X657417Y463550D02*
X666750Y463550D01*
X666750Y481328D01*
X657417Y481328D01*
G54D16*
X666750Y472439D02*
X657417Y472439D01*
G54D16*
X651195Y466883D02*
X649862Y464661D01*
X647195Y463550D01*
X644528Y463550D01*
X641862Y464661D01*
X640528Y466883D01*
X640528Y469106D01*
X641862Y471328D01*
X644528Y472439D01*
X647195Y472439D01*
X649862Y473550D01*
X651195Y475772D01*
X651195Y477994D01*
X649862Y480217D01*
X647195Y481328D01*
X644528Y481328D01*
X641862Y480217D01*
X640528Y477994D01*
G54D16*
X634306Y463550D02*
X634306Y481328D01*
X627639Y481328D01*
X624973Y480217D01*
X623639Y477994D01*
X623639Y475772D01*
X624973Y473550D01*
X627639Y472439D01*
X634306Y472439D01*
G54D16*
X610928Y481328D02*
X604261Y463550D01*
X597595Y481328D01*
G54D16*
X591373Y474661D02*
X584706Y481328D01*
X584706Y463550D01*
G54D16*
X578484Y463550D02*
X578484Y463550D01*
G54D16*
X572262Y474661D02*
X565595Y481328D01*
X565595Y463550D01*
%LPD*%
G54D17*
G36*
X157467Y205800D02*
X157467Y191300D01*
X147333Y191300D01*
X147333Y205800D01*
X157467Y205800D01*
G37*
G36*
X152400Y200733D02*
X137900Y200733D01*
X137900Y210867D01*
X152400Y210867D01*
X152400Y200733D01*
G37*
G54D17*
G36*
X121933Y205800D02*
X121933Y220300D01*
X132067Y220300D01*
X132067Y205800D01*
X121933Y205800D01*
G37*
G36*
X127000Y210867D02*
X141500Y210867D01*
X141500Y200733D01*
X127000Y200733D01*
X127000Y210867D01*
G37*
G36*
X132067Y205800D02*
X132067Y191300D01*
X121933Y191300D01*
X121933Y205800D01*
X132067Y205800D01*
G37*
G36*
X127000Y200733D02*
X112500Y200733D01*
X112500Y210867D01*
X127000Y210867D01*
X127000Y200733D01*
G37*
G54D18*
G36*
X131667Y447100D02*
X131667Y461600D01*
X147733Y461600D01*
X147733Y447100D01*
X131667Y447100D01*
G37*
G36*
X147733Y447100D02*
X147733Y432600D01*
X131667Y432600D01*
X131667Y447100D01*
X147733Y447100D01*
G37*
G54D17*
G36*
X144767Y345500D02*
X144767Y331000D01*
X134633Y331000D01*
X134633Y345500D01*
X144767Y345500D01*
G37*
G36*
X139700Y340433D02*
X125200Y340433D01*
X125200Y350567D01*
X139700Y350567D01*
X139700Y340433D01*
G37*
G54D19*
G36*
X145367Y282000D02*
X145367Y267500D01*
X134033Y267500D01*
X134033Y282000D01*
X145367Y282000D01*
G37*
G36*
X139700Y276333D02*
X125200Y276333D01*
X125200Y287667D01*
X139700Y287667D01*
X139700Y276333D01*
G37*
G54D20*
G36*
X134500Y409000D02*
X134500Y423500D01*
X144900Y423500D01*
X144900Y409000D01*
X134500Y409000D01*
G37*
G36*
X139700Y414200D02*
X154200Y414200D01*
X154200Y403800D01*
X139700Y403800D01*
X139700Y414200D01*
G37*
G36*
X144900Y409000D02*
X144900Y394500D01*
X134500Y394500D01*
X134500Y409000D01*
X144900Y409000D01*
G37*
G36*
X139700Y403800D02*
X125200Y403800D01*
X125200Y414200D01*
X139700Y414200D01*
X139700Y403800D01*
G37*
G54D21*
G36*
X185333Y409000D02*
X185333Y423500D01*
X195667Y423500D01*
X195667Y409000D01*
X185333Y409000D01*
G37*
G36*
X190500Y414167D02*
X205000Y414167D01*
X205000Y403833D01*
X190500Y403833D01*
X190500Y414167D01*
G37*
G54D17*
G36*
X434554Y367679D02*
X434554Y382179D01*
X444687Y382179D01*
X444687Y367679D01*
X434554Y367679D01*
G37*
G36*
X439620Y372746D02*
X454120Y372746D01*
X454120Y362612D01*
X439620Y362612D01*
X439620Y372746D01*
G37*
G54D17*
G36*
X470087Y367679D02*
X470087Y353179D01*
X459954Y353179D01*
X459954Y367679D01*
X470087Y367679D01*
G37*
G36*
X465020Y362612D02*
X450520Y362612D01*
X450520Y372746D01*
X465020Y372746D01*
X465020Y362612D01*
G37*
G36*
X459954Y367679D02*
X459954Y382179D01*
X470087Y382179D01*
X470087Y367679D01*
X459954Y367679D01*
G37*
G36*
X465020Y372746D02*
X479520Y372746D01*
X479520Y362612D01*
X465020Y362612D01*
X465020Y372746D01*
G37*
G54D19*
G36*
X548469Y118171D02*
X533969Y118171D01*
X533969Y129504D01*
X548469Y129504D01*
X548469Y118171D01*
G37*
G36*
X542802Y123838D02*
X542802Y138338D01*
X554136Y138338D01*
X554136Y123838D01*
X542802Y123838D01*
G37*
G54D17*
G36*
X634069Y385471D02*
X619569Y385471D01*
X619569Y395604D01*
X634069Y395604D01*
X634069Y385471D01*
G37*
G54D17*
G36*
X372436Y212737D02*
X372436Y198237D01*
X362303Y198237D01*
X362303Y212737D01*
X372436Y212737D01*
G37*
G36*
X367369Y207671D02*
X352869Y207671D01*
X352869Y217804D01*
X367369Y217804D01*
X367369Y207671D01*
G37*
G36*
X362303Y212737D02*
X362303Y227237D01*
X372436Y227237D01*
X372436Y212737D01*
X362303Y212737D01*
G37*
G54D22*
G36*
X608669Y118571D02*
X594169Y118571D01*
X594169Y129104D01*
X608669Y129104D01*
X608669Y118571D01*
G37*
G36*
X603403Y123837D02*
X603403Y138337D01*
X613936Y138337D01*
X613936Y123837D01*
X603403Y123837D01*
G37*
G36*
X608669Y129104D02*
X623169Y129104D01*
X623169Y118571D01*
X608669Y118571D01*
X608669Y129104D01*
G37*
G54D21*
G36*
X372536Y111137D02*
X372536Y96637D01*
X362203Y96637D01*
X362203Y111137D01*
X372536Y111137D01*
G37*
G36*
X367369Y105971D02*
X352869Y105971D01*
X352869Y116304D01*
X367369Y116304D01*
X367369Y105971D01*
G37*
G36*
X362203Y111137D02*
X362203Y125637D01*
X372536Y125637D01*
X372536Y111137D01*
X362203Y111137D01*
G37*
G54D19*
G36*
X495696Y117749D02*
X481196Y117749D01*
X481196Y129082D01*
X495696Y129082D01*
X495696Y117749D01*
G37*
G36*
X490030Y123416D02*
X490030Y137916D01*
X501363Y137916D01*
X501363Y123416D01*
X490030Y123416D01*
G37*
G54D22*
G36*
X545829Y326544D02*
X560329Y326544D01*
X560329Y316011D01*
X545829Y316011D01*
X545829Y326544D01*
G37*
G36*
X551096Y321277D02*
X551096Y306777D01*
X540563Y306777D01*
X540563Y321277D01*
X551096Y321277D01*
G37*
G36*
X545829Y316011D02*
X531329Y316011D01*
X531329Y326544D01*
X545829Y326544D01*
X545829Y316011D01*
G37*
G36*
X540563Y321277D02*
X540563Y335777D01*
X551096Y335777D01*
X551096Y321277D01*
X540563Y321277D01*
G37*
G54D23*
G36*
X590219Y281184D02*
X604719Y281184D01*
X604719Y270451D01*
X590219Y270451D01*
X590219Y281184D01*
G37*
G36*
X595586Y275818D02*
X595586Y261318D01*
X584852Y261318D01*
X584852Y275818D01*
X595586Y275818D01*
G37*
G36*
X590219Y270451D02*
X575719Y270451D01*
X575719Y281184D01*
X590219Y281184D01*
X590219Y270451D01*
G37*
G36*
X584852Y275818D02*
X584852Y290318D01*
X595586Y290318D01*
X595586Y275818D01*
X584852Y275818D01*
G37*
X228600Y142300D02*
G54D24*
D03*
X114300Y142300D02*
G54D24*
D03*
G36*
X234238Y118362D02*
X243012Y127138D01*
X255462Y127138D01*
X264238Y118362D01*
X264238Y105912D01*
X255462Y97138D01*
X243012Y97138D01*
X234238Y105912D01*
X234238Y118362D01*
G37*
G36*
X78662Y118362D02*
X87438Y127138D01*
X99888Y127138D01*
X108662Y118362D01*
X108662Y105912D01*
X99888Y97138D01*
X87438Y97138D01*
X78662Y105912D01*
X78662Y118362D01*
G37*
G36*
X158600Y233898D02*
X162402Y237700D01*
X167798Y237700D01*
X171600Y233898D01*
X171600Y228502D01*
X167798Y224700D01*
X162402Y224700D01*
X158600Y228502D01*
X158600Y233898D01*
G37*
G36*
X167800Y209950D02*
X173650Y215800D01*
X181950Y215800D01*
X187800Y209950D01*
X187800Y201650D01*
X181950Y195800D01*
X173650Y195800D01*
X167800Y201650D01*
X167800Y209950D01*
G37*
G36*
X193200Y209950D02*
X199050Y215800D01*
X207350Y215800D01*
X213200Y209950D01*
X213200Y201650D01*
X207350Y195800D01*
X199050Y195800D01*
X193200Y201650D01*
X193200Y209950D01*
G37*
G36*
X142400Y209950D02*
X148250Y215800D01*
X156550Y215800D01*
X162400Y209950D01*
X162400Y201650D01*
X156550Y195800D01*
X148250Y195800D01*
X142400Y201650D01*
X142400Y209950D01*
G37*
G36*
X117000Y209950D02*
X122850Y215800D01*
X131150Y215800D01*
X137000Y209950D01*
X137000Y201650D01*
X131150Y195800D01*
X122850Y195800D01*
X117000Y201650D01*
X117000Y209950D01*
G37*
G36*
X155100Y235350D02*
X160950Y241200D01*
X169250Y241200D01*
X175100Y235350D01*
X175100Y227050D01*
X169250Y221200D01*
X160950Y221200D01*
X155100Y227050D01*
X155100Y235350D01*
G37*
G36*
X129700Y235350D02*
X135550Y241200D01*
X143850Y241200D01*
X149700Y235350D01*
X149700Y227050D01*
X143850Y221200D01*
X135550Y221200D01*
X129700Y227050D01*
X129700Y235350D01*
G37*
G36*
X180500Y235350D02*
X186350Y241200D01*
X194650Y241200D01*
X200500Y235350D01*
X200500Y227050D01*
X194650Y221200D01*
X186350Y221200D01*
X180500Y227050D01*
X180500Y235350D01*
G37*
G36*
X205900Y235350D02*
X211750Y241200D01*
X220050Y241200D01*
X225900Y235350D01*
X225900Y227050D01*
X220050Y221200D01*
X211750Y221200D01*
X205900Y227050D01*
X205900Y235350D01*
G37*
G54D25*
X165100Y231200D02*
X165100Y282000D01*
G36*
X104300Y451250D02*
X110150Y457100D01*
X118450Y457100D01*
X124300Y451250D01*
X124300Y442950D01*
X118450Y437100D01*
X110150Y437100D01*
X104300Y442950D01*
X104300Y451250D01*
G37*
G36*
X129700Y451250D02*
X135550Y457100D01*
X143850Y457100D01*
X149700Y451250D01*
X149700Y442950D01*
X143850Y437100D01*
X135550Y437100D01*
X129700Y442950D01*
X129700Y451250D01*
G37*
G36*
X155100Y451250D02*
X160950Y457100D01*
X169250Y457100D01*
X175100Y451250D01*
X175100Y442950D01*
X169250Y437100D01*
X160950Y437100D01*
X155100Y442950D01*
X155100Y451250D01*
G37*
G36*
X180500Y451250D02*
X186350Y457100D01*
X194650Y457100D01*
X200500Y451250D01*
X200500Y442950D01*
X194650Y437100D01*
X186350Y437100D01*
X180500Y442950D01*
X180500Y451250D01*
G37*
G36*
X205900Y451250D02*
X211750Y457100D01*
X220050Y457100D01*
X225900Y451250D01*
X225900Y442950D01*
X220050Y437100D01*
X211750Y437100D01*
X205900Y442950D01*
X205900Y451250D01*
G37*
G36*
X231300Y451250D02*
X237150Y457100D01*
X245450Y457100D01*
X251300Y451250D01*
X251300Y442950D01*
X245450Y437100D01*
X237150Y437100D01*
X231300Y442950D01*
X231300Y451250D01*
G37*
X76200Y320100D02*
G54D26*
D03*
X241300Y320100D02*
G54D27*
D03*
G36*
X175100Y341349D02*
X169250Y335499D01*
X160950Y335499D01*
X155100Y341349D01*
X155100Y349649D01*
X160950Y355499D01*
X169250Y355499D01*
X175100Y349649D01*
X175100Y341349D01*
G37*
G36*
X149700Y341350D02*
X143850Y335500D01*
X135550Y335500D01*
X129700Y341350D01*
X129700Y349650D01*
X135550Y355500D01*
X143850Y355500D01*
X149700Y349650D01*
X149700Y341350D01*
G37*
G36*
X175100Y277849D02*
X169250Y271999D01*
X160950Y271999D01*
X155100Y277849D01*
X155100Y286149D01*
X160950Y291999D01*
X169250Y291999D01*
X175100Y286149D01*
X175100Y277849D01*
G37*
G36*
X149700Y277850D02*
X143850Y272000D01*
X135550Y272000D01*
X129700Y277850D01*
X129700Y286150D01*
X135550Y292000D01*
X143850Y292000D01*
X149700Y286150D01*
X149700Y277850D01*
G37*
G54D25*
X165100Y281999D02*
X165100Y345500D01*
X114300Y396300D01*
X114300Y447100D01*
G54D28*
X139700Y231200D02*
X114300Y256600D01*
X114300Y358200D01*
X76200Y396300D01*
X76200Y459800D01*
X88900Y472500D01*
X177800Y472500D01*
X190500Y459800D01*
X190500Y447100D01*
G54D25*
X190500Y231200D02*
X190500Y383600D01*
X165100Y409000D01*
X165100Y447100D01*
G36*
X129700Y413150D02*
X135550Y419000D01*
X143850Y419000D01*
X149700Y413150D01*
X149700Y404850D01*
X143850Y399000D01*
X135550Y399000D01*
X129700Y404850D01*
X129700Y413150D01*
G37*
G36*
X180500Y413150D02*
X186350Y419000D01*
X194650Y419000D01*
X200500Y413150D01*
X200500Y404850D01*
X194650Y399000D01*
X186350Y399000D01*
X180500Y404850D01*
X180500Y413150D01*
G37*
X363420Y431179D02*
G54D24*
D03*
X477720Y431179D02*
G54D29*
D03*
G36*
X357783Y455116D02*
X349008Y446341D01*
X336558Y446341D01*
X327783Y455116D01*
X327783Y467566D01*
X336558Y476341D01*
X349008Y476341D01*
X357783Y467566D01*
X357783Y455116D01*
G37*
G36*
X513358Y455116D02*
X504583Y446341D01*
X492133Y446341D01*
X483358Y455116D01*
X483358Y467566D01*
X492133Y476341D01*
X504583Y476341D01*
X513358Y467566D01*
X513358Y455116D01*
G37*
G36*
X433420Y339581D02*
X429618Y335779D01*
X424222Y335779D01*
X420420Y339581D01*
X420420Y344977D01*
X424222Y348779D01*
X429618Y348779D01*
X433420Y344977D01*
X433420Y339581D01*
G37*
G36*
X424220Y363529D02*
X418370Y357679D01*
X410070Y357679D01*
X404220Y363529D01*
X404220Y371829D01*
X410070Y377679D01*
X418370Y377679D01*
X424220Y371829D01*
X424220Y363529D01*
G37*
G36*
X398820Y363529D02*
X392970Y357679D01*
X384670Y357679D01*
X378820Y363529D01*
X378820Y371829D01*
X384670Y377679D01*
X392970Y377679D01*
X398820Y371829D01*
X398820Y363529D01*
G37*
G36*
X449620Y363529D02*
X443770Y357679D01*
X435470Y357679D01*
X429620Y363529D01*
X429620Y371829D01*
X435470Y377679D01*
X443770Y377679D01*
X449620Y371829D01*
X449620Y363529D01*
G37*
G36*
X475020Y363529D02*
X469170Y357679D01*
X460870Y357679D01*
X455020Y363529D01*
X455020Y371829D01*
X460870Y377679D01*
X469170Y377679D01*
X475020Y371829D01*
X475020Y363529D01*
G37*
G36*
X436920Y338129D02*
X431070Y332279D01*
X422770Y332279D01*
X416920Y338129D01*
X416920Y346429D01*
X422770Y352279D01*
X431070Y352279D01*
X436920Y346429D01*
X436920Y338129D01*
G37*
G36*
X462320Y338129D02*
X456470Y332279D01*
X448170Y332279D01*
X442320Y338129D01*
X442320Y346429D01*
X448170Y352279D01*
X456470Y352279D01*
X462320Y346429D01*
X462320Y338129D01*
G37*
G36*
X411520Y338129D02*
X405670Y332279D01*
X397370Y332279D01*
X391520Y338129D01*
X391520Y346429D01*
X397370Y352279D01*
X405670Y352279D01*
X411520Y346429D01*
X411520Y338129D01*
G37*
G36*
X386120Y338129D02*
X380270Y332279D01*
X371970Y332279D01*
X366120Y338129D01*
X366120Y346429D01*
X371970Y352279D01*
X380270Y352279D01*
X386120Y346429D01*
X386120Y338129D01*
G37*
X540599Y425433D02*
G54D26*
D03*
X540599Y196833D02*
G54D27*
D03*
G36*
X544319Y88437D02*
X538469Y94287D01*
X538469Y102587D01*
X544319Y108437D01*
X552619Y108437D01*
X558469Y102587D01*
X558469Y94287D01*
X552619Y88437D01*
X544319Y88437D01*
G37*
G36*
X544319Y113838D02*
X538469Y119688D01*
X538469Y127988D01*
X544319Y133838D01*
X552619Y133838D01*
X558469Y127988D01*
X558469Y119688D01*
X552619Y113838D01*
X544319Y113838D01*
G37*
G36*
X638219Y425938D02*
X644069Y420087D01*
X644069Y411787D01*
X638219Y405937D01*
X629919Y405937D01*
X624069Y411788D01*
X624069Y420087D01*
X629919Y425937D01*
X638219Y425938D01*
G37*
G36*
X638219Y400537D02*
X644069Y394687D01*
X644069Y386387D01*
X638219Y380537D01*
X629919Y380537D01*
X624069Y386387D01*
X624069Y394687D01*
X629919Y400537D01*
X638219Y400537D01*
G37*
G36*
X638219Y375137D02*
X644069Y369287D01*
X644069Y360987D01*
X638219Y355137D01*
X629919Y355137D01*
X624069Y360987D01*
X624069Y369287D01*
X629919Y375137D01*
X638219Y375137D01*
G37*
G36*
X638219Y349737D02*
X644069Y343888D01*
X644069Y335588D01*
X638219Y329738D01*
X629919Y329738D01*
X624069Y335587D01*
X624069Y343887D01*
X629919Y349737D01*
X638219Y349737D01*
G37*
G36*
X447719Y222737D02*
X453569Y216887D01*
X453569Y208587D01*
X447719Y202737D01*
X439419Y202737D01*
X433569Y208587D01*
X433569Y216887D01*
X439419Y222737D01*
X447719Y222737D01*
G37*
G36*
X422319Y222737D02*
X428169Y216887D01*
X428169Y208587D01*
X422319Y202737D01*
X414019Y202737D01*
X408169Y208587D01*
X408169Y216887D01*
X414019Y222737D01*
X422319Y222737D01*
G37*
G36*
X396919Y222737D02*
X402769Y216887D01*
X402769Y208587D01*
X396919Y202737D01*
X388619Y202737D01*
X382769Y208587D01*
X382769Y216887D01*
X388619Y222737D01*
X396919Y222737D01*
G37*
G36*
X371519Y222737D02*
X377369Y216887D01*
X377369Y208587D01*
X371519Y202737D01*
X363219Y202737D01*
X357369Y208587D01*
X357369Y216887D01*
X363219Y222737D01*
X371519Y222737D01*
G37*
G36*
X618669Y94287D02*
X612819Y88437D01*
X604519Y88437D01*
X598669Y94287D01*
X598669Y102587D01*
X604519Y108437D01*
X612819Y108437D01*
X618669Y102587D01*
X618669Y94287D01*
G37*
G36*
X618669Y119687D02*
X612819Y113837D01*
X604519Y113837D01*
X598669Y119687D01*
X598669Y127987D01*
X604519Y133837D01*
X612819Y133837D01*
X618669Y127987D01*
X618669Y119687D01*
G37*
G36*
X447719Y121138D02*
X453569Y115288D01*
X453569Y106988D01*
X447719Y101138D01*
X439419Y101138D01*
X433569Y106988D01*
X433569Y115288D01*
X439419Y121138D01*
X447719Y121138D01*
G37*
G36*
X422319Y121138D02*
X428169Y115288D01*
X428169Y106988D01*
X422319Y101138D01*
X414019Y101138D01*
X408169Y106988D01*
X408169Y115288D01*
X414019Y121138D01*
X422319Y121138D01*
G37*
G36*
X396919Y121138D02*
X402769Y115288D01*
X402769Y106988D01*
X396919Y101138D01*
X388619Y101138D01*
X382769Y106988D01*
X382769Y115288D01*
X388619Y121138D01*
X396919Y121138D01*
G37*
G36*
X371519Y121137D02*
X377369Y115287D01*
X377369Y106987D01*
X371519Y101137D01*
X363219Y101137D01*
X357369Y106987D01*
X357369Y115287D01*
X363219Y121137D01*
X371519Y121137D01*
G37*
G36*
X491546Y88015D02*
X485696Y93865D01*
X485696Y102165D01*
X491546Y108015D01*
X499846Y108015D01*
X505696Y102165D01*
X505696Y93865D01*
X499846Y88015D01*
X491546Y88015D01*
G37*
G36*
X491546Y113416D02*
X485696Y119266D01*
X485696Y127566D01*
X491546Y133416D01*
X499846Y133416D01*
X505696Y127566D01*
X505696Y119266D01*
X499846Y113416D01*
X491546Y113416D01*
G37*
G54D25*
X495696Y98015D02*
X456691Y98015D01*
X443569Y111138D01*
G54D25*
X548469Y98437D02*
X496118Y98437D01*
X495696Y98015D01*
G54D25*
X608669Y98437D02*
X548469Y98437D01*
G54D25*
X443569Y212737D02*
X443569Y276238D01*
X430869Y288937D01*
G54D25*
X426920Y342279D02*
X426920Y292886D01*
X430869Y288937D01*
G54D25*
X634069Y415937D02*
X608669Y415938D01*
X443569Y250838D01*
G54D25*
X418169Y212737D02*
X418169Y250838D01*
X405469Y263537D01*
G54D25*
X401520Y342279D02*
X401520Y267486D01*
X405469Y263537D01*
G54D28*
X418169Y212737D02*
X437219Y193687D01*
X449919Y193687D01*
X595969Y339737D01*
X634069Y339737D01*
G54D28*
X392769Y212737D02*
X430869Y174637D01*
X456269Y174638D01*
X602319Y320688D01*
X640419Y320688D01*
X653119Y333388D01*
X653119Y346087D01*
X634069Y365137D01*
G54D25*
X634069Y365137D02*
X653119Y384187D01*
X653119Y422287D01*
X640419Y434987D01*
X627719Y434988D01*
X621369Y428638D01*
X602319Y428637D01*
X513419Y339737D01*
X449919Y339737D01*
X452320Y342278D01*
G36*
X549979Y331277D02*
X555829Y325427D01*
X555829Y317127D01*
X549979Y311277D01*
X541679Y311277D01*
X535829Y317127D01*
X535829Y325427D01*
X541679Y331277D01*
X549979Y331277D01*
G37*
G36*
X594369Y285818D02*
X600219Y279968D01*
X600219Y271668D01*
X594369Y265818D01*
X586069Y265818D01*
X580219Y271668D01*
X580219Y279968D01*
X586069Y285818D01*
X594369Y285818D01*
G37*
G36*
X510804Y323338D02*
X516069Y318072D01*
X516069Y310602D01*
X510804Y305338D01*
X503334Y305338D01*
X498069Y310602D01*
X498069Y318072D01*
X503334Y323338D01*
X510804Y323338D01*
G37*
G36*
X485819Y298938D02*
X491669Y293088D01*
X491669Y284788D01*
X485819Y278938D01*
X477519Y278938D01*
X471669Y284788D01*
X471669Y293088D01*
X477519Y298938D01*
X485819Y298938D01*
G37*
G36*
X485819Y210037D02*
X491669Y204187D01*
X491669Y195887D01*
X485819Y190037D01*
X477519Y190037D01*
X471669Y195887D01*
X471669Y204187D01*
X477519Y210037D01*
X485819Y210037D01*
G37*
G36*
X511219Y260837D02*
X517069Y254987D01*
X517069Y246687D01*
X511219Y240837D01*
X502919Y240837D01*
X497069Y246687D01*
X497069Y254987D01*
X502919Y260837D01*
X511219Y260837D01*
G37*
G54D30*
X247650Y168433D02*
X246317Y166211D01*
X243650Y165100D01*
X240983Y165100D01*
X238317Y166211D01*
X236983Y168433D01*
X236983Y170656D01*
X238317Y172878D01*
X240983Y173989D01*
X243650Y173989D01*
X246317Y175100D01*
X247650Y177322D01*
X247650Y179544D01*
X246317Y181767D01*
X243650Y182878D01*
X240983Y182878D01*
X238317Y181767D01*
X236983Y179544D01*
G54D30*
X221428Y165100D02*
X230761Y165100D01*
X230761Y182878D01*
X221428Y182878D01*
G54D30*
X230761Y173989D02*
X221428Y173989D01*
G54D30*
X215206Y165100D02*
X215206Y182878D01*
X204539Y165100D01*
X204539Y182878D01*
G54D30*
X198317Y168433D02*
X196984Y166211D01*
X194317Y165100D01*
X191650Y165100D01*
X188984Y166211D01*
X187650Y168433D01*
X187650Y170656D01*
X188984Y172878D01*
X191650Y173989D01*
X194317Y173989D01*
X196984Y175100D01*
X198317Y177322D01*
X198317Y179544D01*
X196984Y181767D01*
X194317Y182878D01*
X191650Y182878D01*
X188984Y181767D01*
X187650Y179544D01*
G54D30*
X170761Y179544D02*
X170761Y168433D01*
X172095Y166211D01*
X174761Y165100D01*
X177428Y165100D01*
X180095Y166211D01*
X181428Y168433D01*
X181428Y179544D01*
X180095Y181767D01*
X177428Y182878D01*
X174761Y182878D01*
X172095Y181767D01*
X170761Y179544D01*
G54D30*
X159206Y173989D02*
X155206Y171767D01*
X153872Y169544D01*
X153872Y165100D01*
G54D30*
X164539Y165100D02*
X164539Y182878D01*
X157872Y182878D01*
X155206Y181767D01*
X153872Y179544D01*
X153872Y177322D01*
X155206Y175100D01*
X157872Y173989D01*
X164539Y173989D01*
G54D30*
X141161Y182878D02*
X134494Y165100D01*
X127828Y182878D01*
G54D30*
X121606Y176211D02*
X114939Y182878D01*
X114939Y165100D01*
G54D30*
X108717Y165100D02*
X108717Y165100D01*
G54D30*
X102495Y176211D02*
X95828Y182878D01*
X95828Y165100D01*
G54D30*
X657417Y463550D02*
X666750Y463550D01*
X666750Y481328D01*
X657417Y481328D01*
G54D30*
X666750Y472439D02*
X657417Y472439D01*
G54D30*
X651195Y466883D02*
X649862Y464661D01*
X647195Y463550D01*
X644528Y463550D01*
X641862Y464661D01*
X640528Y466883D01*
X640528Y469106D01*
X641862Y471328D01*
X644528Y472439D01*
X647195Y472439D01*
X649862Y473550D01*
X651195Y475772D01*
X651195Y477994D01*
X649862Y480217D01*
X647195Y481328D01*
X644528Y481328D01*
X641862Y480217D01*
X640528Y477994D01*
G54D30*
X634306Y463550D02*
X634306Y481328D01*
X627639Y481328D01*
X624973Y480217D01*
X623639Y477994D01*
X623639Y475772D01*
X624973Y473550D01*
X627639Y472439D01*
X634306Y472439D01*
G54D30*
X610928Y481328D02*
X604261Y463550D01*
X597595Y481328D01*
G54D30*
X591373Y474661D02*
X584706Y481328D01*
X584706Y463550D01*
G54D30*
X578484Y463550D02*
X578484Y463550D01*
G54D30*
X572262Y474661D02*
X565595Y481328D01*
X565595Y463550D01*
M02*
